<svg xmlns="http://www.w3.org/2000/svg" xmlns:xlink="http://www.w3.org/1999/xlink" width="70" height="70" viewBox="0 0 70 70">
    <defs>
        <linearGradient id="a" x1="67.386%" x2="25.437%" y1="0%" y2="100%">
            <stop offset="0%" stop-color="#FFD538"/>
            <stop offset="100%" stop-color="#FFB83C"/>
        </linearGradient>
        <linearGradient id="b" x1="107.448%" x2="15.8%" y1="65.001%" y2="162.896%">
            <stop offset="0%" stop-color="#FFF9E5"/>
            <stop offset="100%" stop-color="#FFF3C8"/>
        </linearGradient>
        <linearGradient id="c" x1="50%" x2="50%" y1="21.033%" y2="86.584%">
            <stop offset="0%" stop-color="#FFF"/>
            <stop offset="100%" stop-color="#FFF"/>
        </linearGradient>
        <path id="d" d="M2.072 34.217h18.645v5.844a8.101 8.101 0 0 1-1.12 4.109L13.14 55.145a2.025 2.025 0 0 1-3.491 0L3.19 44.17a8.101 8.101 0 0 1-1.12-4.109v-5.844z"/>
        <filter id="e" width="121.5%" height="118.6%" x="-10.7%" y="-9.2%" filterUnits="objectBoundingBox">
            <feOffset dx="4" dy="4" in="SourceAlpha" result="shadowOffsetInner1"/>
            <feComposite in="shadowOffsetInner1" in2="SourceAlpha" k2="-1" k3="1" operator="arithmetic" result="shadowInnerInner1"/>
            <feColorMatrix in="shadowInnerInner1" values="0 0 0 0 1 0 0 0 0 1 0 0 0 0 1 0 0 0 0.188717165 0"/>
        </filter>
        <path id="f" d="M2.072 26.166h18.645l.579 7.644a1.013 1.013 0 0 1-1.01 1.09l-17.661.014a1.013 1.013 0 0 1-1.012-1.073l.459-7.675z"/>
        <filter id="g" width="120.3%" height="145.7%" x="-10.2%" y="-22.9%" filterUnits="objectBoundingBox">
            <feOffset dx="4" dy="4" in="SourceAlpha" result="shadowOffsetInner1"/>
            <feComposite in="shadowOffsetInner1" in2="SourceAlpha" k2="-1" k3="1" operator="arithmetic" result="shadowInnerInner1"/>
            <feColorMatrix in="shadowInnerInner1" values="0 0 0 0 1 0 0 0 0 1 0 0 0 0 1 0 0 0 0.14305933 0"/>
        </filter>
        <linearGradient id="h" x1="50%" x2="50%" y1="92.764%" y2="7.034%">
            <stop offset="0%" stop-color="#89CEF5"/>
            <stop offset="100%" stop-color="#3CB7F8"/>
        </linearGradient>
        <path id="i" d="M4.05 0h14.688a4.05 4.05 0 0 1 4.05 4.05v24.116a2.025 2.025 0 0 1-2.025 2.025H2.025A2.025 2.025 0 0 1 0 28.166V4.051A4.05 4.05 0 0 1 4.05 0z"/>
        <filter id="j" width="117.6%" height="113.2%" x="-8.8%" y="-6.6%" filterUnits="objectBoundingBox">
            <feOffset dx="-4" in="SourceAlpha" result="shadowOffsetInner1"/>
            <feComposite in="shadowOffsetInner1" in2="SourceAlpha" k2="-1" k3="1" operator="arithmetic" result="shadowInnerInner1"/>
            <feColorMatrix in="shadowInnerInner1" values="0 0 0 0 0.166141476 0 0 0 0 0.678644716 0 0 0 0 0.95049426 0 0 0 1 0"/>
        </filter>
    </defs>
    <g fill="none" fill-rule="evenodd">
        <ellipse cx="34.568" cy="34.5" fill="url(#a)" rx="31.703" ry="32.5"/>
        <path stroke="url(#b)" stroke-linecap="round" stroke-width="6.252" d="M19.649 20.463l29.837-.602M19.649 51.05h17.716M14.85 35.622h39.162" opacity=".803"/>
        <g transform="rotate(45 23.184 63.535)">
            <use fill="url(#c)" xlink:href="#d"/>
            <use fill="#000" filter="url(#e)" xlink:href="#d"/>
        </g>
        <path fill="#515151" d="M18.385 51.736c.809.809 2.102.827 2.888.041.786-.786.767-2.079-.042-2.888-.809-.809-2.102-.828-2.888-.042-.786.787-.767 2.08.042 2.889z"/>
        <path fill="#515151" fill-rule="nonzero" d="M27.36 43.533l-6.75 6.62c-.28.28-.192.323-.596-.082-.405-.405-.505-.96-.224-1.24l6.396-6.43a2.015 2.015 0 0 1 .405-2.233c.786-.786 2.079-.767 2.888.042.809.809.828 2.102.041 2.888a2.011 2.011 0 0 1-2.16.435z"/>
        <g transform="rotate(45 23.184 63.535)">
            <use fill="#6084A6" xlink:href="#f"/>
            <use fill="#000" filter="url(#g)" xlink:href="#f"/>
        </g>
        <g transform="rotate(45 23.184 63.535)">
            <use fill="url(#h)" xlink:href="#i"/>
            <use fill="#000" filter="url(#j)" xlink:href="#i"/>
        </g>
        <path stroke="#FFF" stroke-linecap="round" stroke-width="2.025" d="M48.948 10.428l-7.03 7.029m-3.455 3.455l-2.324 2.325"/>
    </g>
</svg>
